<?xml version="1.0" encoding="utf-8"?>
<!-- Generator: Adobe Illustrator 19.2.1, SVG Export Plug-In . SVG Version: 6.00 Build 0)  -->
<svg version="1.1" id="Layer_1" xmlns="http://www.w3.org/2000/svg" xmlns:xlink="http://www.w3.org/1999/xlink" x="0px" y="0px"
	 viewBox="0 0 50 50" style="enable-background:new 0 0 50 50;" xml:space="preserve">
<g>
	<path d="M25,0C11.2,0,0,11.2,0,25c0,13.8,11.2,25,25,25s25-11.2,25-25C50,11.2,38.8,0,25,0z M24.8,45.2c-11.1,0-20.2-9-20.2-20.2
		c0-11.2,9-20.2,20.2-20.2C36,4.9,45,13.9,45,25.1C45,36.2,35.9,45.2,24.8,45.2z"/>
	<path d="M30.6,26.2h-5.7v-9.7c0-1.1-0.9-1.9-1.9-1.9c-1.1,0-1.9,0.9-1.9,1.9v11.6c0,1.1,0.9,1.9,1.9,1.9h7.6l0,0
		c1.1,0,1.9-0.9,1.9-1.9C32.5,27.1,31.7,26.2,30.6,26.2z"/>
</g>
</svg>
