<?xml version="1.0" encoding="utf-8"?>
<!-- Generator: Adobe Illustrator 19.2.1, SVG Export Plug-In . SVG Version: 6.00 Build 0)  -->
<svg version="1.1" id="Layer_1" xmlns="http://www.w3.org/2000/svg" xmlns:xlink="http://www.w3.org/1999/xlink" x="0px" y="0px"
	 viewBox="0 0 50 50" style="enable-background:new 0 0 50 50;" xml:space="preserve">
<path d="M25,50C11.2,50,0,38.8,0,25S11.2,0,25,0s25,11.2,25,25l0,0C50,38.8,38.8,50,25,50z M25,2.6C12.6,2.6,2.6,12.6,2.6,25
	s10,22.4,22.4,22.4s22.4-10,22.4-22.4C47.4,12.7,37.3,2.6,25,2.6z M25,44.1C14.5,44.1,5.9,35.5,5.9,25S14.5,5.9,25,5.9
	S44.1,14.5,44.1,25l0,0C44.1,35.5,35.5,44.1,25,44.1z M25,8.6C15.9,8.6,8.6,15.9,8.6,25S15.9,41.4,25,41.4S41.4,34.1,41.4,25l0,0
	C41.4,15.9,34.1,8.6,25,8.6z M30.9,26.3H25c-0.7,0-1.3-0.6-1.3-1.3v-5.9c0-0.7,0.6-1.3,1.3-1.3s1.3,0.6,1.3,1.3v4.6h4.6
	c0.7,0,1.3,0.6,1.3,1.3S31.6,26.3,30.9,26.3z"/>
</svg>
