<?xml version="1.0" encoding="utf-8"?>
<!-- Generator: Adobe Illustrator 19.2.1, SVG Export Plug-In . SVG Version: 6.00 Build 0)  -->
<svg version="1.1" id="Layer_1" xmlns="http://www.w3.org/2000/svg" xmlns:xlink="http://www.w3.org/1999/xlink" x="0px" y="0px"
	 viewBox="0 0 50 50" style="enable-background:new 0 0 50 50;" xml:space="preserve">
<path d="M4.8,40.1c-0.2,0-0.5-0.1-0.7-0.2c-4.3-2.9-5.5-8.8-2.6-13.1c1.9-2.8,5.1-4.4,8.5-4.2c0-0.2,0-0.3,0-0.5
	c0.7-3.9,2.9-7.3,6.1-9.5c3.2-2.3,7.1-3.1,11-2.4c5.1,0.9,9.4,4.5,11.2,9.4c0.2-0.1,0.4-0.1,0.5-0.1c3.6,0.1,7,2,9,5
	c1.7,2.4,2.4,5.4,1.9,8.3c-0.6,2.9-2.3,5.5-4.8,7.1C44.9,40,44.6,40,44.4,40L4.8,40.1L4.8,40.1L4.8,40.1z M9.4,25
	c-0.5,0-0.9,0-1.4,0.1c-1.8,0.4-3.4,1.4-4.4,3c-2.1,3.1-1.3,7.3,1.6,9.6l38.8,0c1.8-1.3,3-3.2,3.5-5.4c0.4-2.3-0.2-4.6-1.5-6.5
	c-1.6-2.3-4.2-3.8-7-3.9c0.2,0.9,0.3,1.8,0.3,2.8c0,0.7-0.5,1.2-1.2,1.2c0,0,0,0,0,0h0c-0.7,0-1.2-0.5-1.2-1.2
	c0-5.9-4.3-11-10.1-12.1c-3.2-0.6-6.5,0.1-9.2,2c-2.7,1.9-4.5,4.7-5.1,8c0,0.2-0.1,0.3-0.2,0.5c0.8,0.3,1.6,0.7,2.3,1.1
	c0.6,0.4,0.7,1.1,0.3,1.7c-0.4,0.5-1.1,0.7-1.7,0.3c0,0,0,0,0,0C12.1,25.4,10.8,25,9.4,25z M32.4,23.4c-0.6,0-1.2-0.5-1.2-1.1
	c-0.1-2.9-2.6-5.2-5.5-5c-0.7,0-1.2-0.5-1.2-1.2c0-0.6,0.5-1.2,1.1-1.2c4.2-0.2,7.8,3.1,8,7.3c0,0,0,0,0,0
	C33.7,22.8,33.1,23.3,32.4,23.4C32.5,23.4,32.5,23.4,32.4,23.4C32.5,23.4,32.4,23.4,32.4,23.4L32.4,23.4z"/>
</svg>
