<?xml version="1.0" encoding="utf-8"?>
<!-- Generator: Adobe Illustrator 19.2.1, SVG Export Plug-In . SVG Version: 6.00 Build 0)  -->
<svg version="1.1" id="Layer_1" xmlns="http://www.w3.org/2000/svg" xmlns:xlink="http://www.w3.org/1999/xlink" x="0px" y="0px"
	 viewBox="0 0 50 50" style="enable-background:new 0 0 50 50;" xml:space="preserve">
<path d="M25,50L25,50c-0.2,0-0.4-0.1-0.6-0.2L0.7,38C0.3,37.8,0,37.3,0,36.8V13.2c0-0.2,0-0.4,0.1-0.6c0,0,0,0,0-0.1
	c0.1-0.2,0.3-0.5,0.6-0.6l11.8-5.9c0,0,0,0,0,0l11.8-5.9c0.4-0.2,0.8-0.2,1.2,0L49.3,12c0.3,0.1,0.5,0.3,0.6,0.6c0,0,0,0,0,0.1
	C50,12.8,50,13,50,13.2v23.6c0,0.5-0.3,1-0.7,1.2L25.6,49.8C25.4,49.9,25.2,50,25,50L25,50z M26.3,25.8v20.7L47.4,36V15.3l-9.9,5
	c0,0,0,0,0,0L26.3,25.8z M2.6,36l21.1,10.5V25.8L2.6,15.3V36z M4.3,13.2L25,23.5l8.9-4.4L13.2,8.7L4.3,13.2z M16.1,7.2l20.7,10.4
	l8.9-4.4L25,2.8L16.1,7.2z M19.1,38.2c-0.2,0-0.4,0-0.6-0.1L6.6,32.1c-0.4-0.2-0.7-0.7-0.7-1.2V25c0-0.7,0.6-1.3,1.3-1.3
	c0.2,0,0.4,0,0.6,0.1l11.8,5.9c0.4,0.2,0.7,0.7,0.7,1.2v5.9c0,0.5-0.2,0.9-0.6,1.1C19.6,38.1,19.3,38.2,19.1,38.2z M8.5,30.1
	l9.2,4.6v-3l-9.2-4.6V30.1z"/>
</svg>
