<?xml version="1.0" encoding="utf-8"?>
<!-- Generator: Adobe Illustrator 19.2.1, SVG Export Plug-In . SVG Version: 6.00 Build 0)  -->
<svg version="1.1" id="Layer_1" xmlns="http://www.w3.org/2000/svg" xmlns:xlink="http://www.w3.org/1999/xlink" x="0px" y="0px"
	 viewBox="0 0 50 50" style="enable-background:new 0 0 50 50;" xml:space="preserve">
<g>
	<path d="M41.4,28.7c-0.2-0.2-0.6-0.4-0.9-0.4s-0.6,0.1-0.9,0.4L25,43.3L10.4,28.7c-0.2-0.2-0.6-0.4-0.9-0.4c-0.3,0-0.6,0.1-0.9,0.4
		l-1.9,1.9c-0.2,0.2-0.4,0.6-0.4,0.9s0.1,0.6,0.4,0.9l17.4,17.4c0.2,0.2,0.6,0.4,0.9,0.4s0.6-0.1,0.9-0.4l17.4-17.4
		c0.2-0.2,0.4-0.6,0.4-0.9s-0.1-0.6-0.4-0.9L41.4,28.7z"/>
	<path d="M8.6,21.3c0.2,0.2,0.6,0.4,0.9,0.4s0.6-0.1,0.9-0.4L25,6.7l14.6,14.6c0.2,0.2,0.6,0.4,0.9,0.4c0.3,0,0.6-0.1,0.9-0.4
		l1.9-1.9c0.2-0.2,0.4-0.6,0.4-0.9s-0.1-0.6-0.4-0.9L25.9,0.4C25.6,0.1,25.3,0,25,0s-0.6,0.1-0.9,0.4L6.8,17.7
		c-0.2,0.2-0.4,0.6-0.4,0.9s0.1,0.6,0.4,0.9L8.6,21.3z"/>
</g>
</svg>
