<?xml version="1.0" encoding="utf-8"?>
<!-- Generator: Adobe Illustrator 19.2.1, SVG Export Plug-In . SVG Version: 6.00 Build 0)  -->
<svg version="1.1" id="Layer_1" xmlns="http://www.w3.org/2000/svg" xmlns:xlink="http://www.w3.org/1999/xlink" x="0px" y="0px"
	 viewBox="0 0 50 50" style="enable-background:new 0 0 50 50;" xml:space="preserve">
<path d="M42.5,50H7.5c-0.7,0-1.3-0.6-1.3-1.3c0,0,0,0,0,0V1.3C6.2,0.6,6.8,0,7.5,0h0h23.3c0.3,0,0.7,0.1,0.9,0.4l0,0l0,0l0,0
	l11.6,11.8l0,0l0,0l0,0c0.2,0.2,0.4,0.6,0.4,0.9l0,0v35.5C43.8,49.4,43.2,50,42.5,50z M8.8,47.4h32.3V14.5H30.8
	c-0.7,0-1.3-0.6-1.3-1.3c0,0,0,0,0,0V2.6H8.8V47.4L8.8,47.4z M32.1,11.8h7.2l-7.2-7.4V11.8z M36.6,40.1H13.4c-0.7,0-1.3-0.6-1.3-1.3
	c0-0.7,0.6-1.3,1.3-1.3h23.3c0.7,0,1.3,0.6,1.3,1.3C38,39.5,37.4,40.1,36.6,40.1L36.6,40.1z M36.6,34.2H13.4c-0.7,0-1.3-0.6-1.3-1.4
	c0-0.7,0.6-1.2,1.3-1.3h23.3c0.7,0,1.3,0.6,1.3,1.4C37.9,33.6,37.3,34.2,36.6,34.2L36.6,34.2z M25,28.3H13.4c-0.7,0-1.3-0.6-1.3-1.4
	c0-0.7,0.6-1.2,1.3-1.3H25c0.7,0.1,1.3,0.7,1.2,1.4C26.2,27.7,25.7,28.2,25,28.3L25,28.3z M24.1,14.5H13.4c-0.7,0-1.3-0.6-1.3-1.3
	c0,0,0,0,0,0V7.2c0-0.7,0.6-1.3,1.3-1.3c0,0,0,0,0,0h10.7c0.7,0,1.3,0.6,1.3,1.3v5.9C25.4,13.9,24.8,14.5,24.1,14.5L24.1,14.5z
	 M14.7,11.8h8.1V8.6h-8.1V11.8z"/>
</svg>
