<?xml version="1.0" encoding="utf-8"?>
<!-- Generator: Adobe Illustrator 19.2.1, SVG Export Plug-In . SVG Version: 6.00 Build 0)  -->
<svg version="1.1" id="Layer_1" xmlns="http://www.w3.org/2000/svg" xmlns:xlink="http://www.w3.org/1999/xlink" x="0px" y="0px"
	 viewBox="0 0 50 50" style="enable-background:new 0 0 50 50;" xml:space="preserve">
<path id="Shape_2_copy" d="M25.4,50C11.6,50.2,0.2,39.2,0,25.4C-0.2,11.6,10.8,0.2,24.6,0S49.8,10.8,50,24.6c0,0.1,0,0.3,0,0.4
	C50.1,38.7,39.1,49.9,25.4,50z M35.8,38.5c-1.4,3.2-3.3,6-5.8,8.4c3.8-0.8,7.4-2.7,10.3-5.4C38.9,40.4,37.4,39.4,35.8,38.5z
	 M10.6,41.4c2.9,2.7,6.5,4.6,10.3,5.4c-2.5-2.5-4.5-5.4-5.9-8.7C13.4,39.1,11.9,40.2,10.6,41.4z M26.7,35.6v10.7
	c2.9-2.4,5.2-5.4,6.7-8.9C31.3,36.4,29,35.8,26.7,35.6L26.7,35.6z M17.3,37.1c1.4,3.6,3.8,6.8,6.8,9.2V35.5
	C21.8,35.6,19.5,36.1,17.3,37.1L17.3,37.1z M36.7,36.1c1.9,1,3.7,2.2,5.4,3.5c3.2-3.7,5.1-8.4,5.3-13.3h-9
	C38.3,29.6,37.7,32.9,36.7,36.1L36.7,36.1z M3.5,26.3c0.3,4.9,2.1,9.5,5.3,13.2c1.6-1.5,3.4-2.8,5.3-3.8c-1-3.1-1.5-6.2-1.6-9.4
	L3.5,26.3L3.5,26.3z M26.7,33c2.6,0.3,5.2,0.9,7.6,2c0.9-2.8,1.4-5.7,1.4-8.7h-9V33z M15.1,26.3c0.1,2.8,0.5,5.6,1.3,8.3
	c2.4-1,5.1-1.6,7.7-1.7v-6.6L15.1,26.3L15.1,26.3z M38.3,23.7h9c-0.3-4.9-2.1-9.5-5.3-13.2c-1.6,1.5-3.4,2.8-5.3,3.8
	C37.7,17.3,38.3,20.5,38.3,23.7L38.3,23.7z M26.7,23.7h9c-0.1-2.8-0.5-5.6-1.3-8.3c-2.4,1-5.1,1.6-7.7,1.7L26.7,23.7L26.7,23.7z
	 M15.1,23.7h9V17c-2.6-0.3-5.2-0.9-7.6-2C15.7,17.8,15.2,20.7,15.1,23.7L15.1,23.7z M3.5,23.7h9c0.1-3.3,0.6-6.6,1.7-9.8
	c-1.9-1-3.7-2.2-5.4-3.5C5.6,14.1,3.8,18.8,3.5,23.7L3.5,23.7z M26.7,3.7v10.7c2.4-0.1,4.7-0.6,6.8-1.5C32.1,9.3,29.8,6.2,26.7,3.7
	L26.7,3.7z M17.4,12.6c2.1,0.9,4.4,1.5,6.7,1.8V3.7C21.2,6.1,18.9,9.2,17.4,12.6L17.4,12.6z M30,3.1c2.5,2.5,4.5,5.4,5.9,8.7
	c1.6-0.9,3.1-2,4.4-3.2C37.4,5.8,33.9,3.9,30,3.1L30,3.1z M10.6,8.5c1.4,1.1,2.9,2.1,4.5,3c1.4-3.2,3.3-6,5.8-8.4
	C17,3.9,13.5,5.8,10.6,8.5L10.6,8.5z"/>
</svg>
