<?xml version="1.0" encoding="utf-8"?>
<!-- Generator: Adobe Illustrator 19.2.1, SVG Export Plug-In . SVG Version: 6.00 Build 0)  -->
<svg version="1.1" id="Layer_1" xmlns="http://www.w3.org/2000/svg" xmlns:xlink="http://www.w3.org/1999/xlink" x="0px" y="0px"
	 viewBox="0 0 50 50" style="enable-background:new 0 0 50 50;" xml:space="preserve">
<path id="map_pin" d="M15.5,15.8c0.3-5.2,4.7-9.3,10-9c5.2,0.3,9.3,4.7,9,10c-0.2,5.1-4.4,9-9.5,9C19.6,25.7,15.4,21.2,15.5,15.8z
	 M8.9,17.1c0,4.2,4.8,13,4.8,13L25,50l10.7-19.9c0,0,5.5-8.9,5.5-13C41.6,8.2,34.8,0.5,25.9,0C17-0.5,9.4,6.3,8.9,15.2
	C8.8,15.9,8.8,16.5,8.9,17.1z"/>
</svg>
