<?xml version="1.0" encoding="utf-8"?>
<!-- Generator: Adobe Illustrator 19.2.1, SVG Export Plug-In . SVG Version: 6.00 Build 0)  -->
<svg version="1.1" id="Layer_1" xmlns="http://www.w3.org/2000/svg" xmlns:xlink="http://www.w3.org/1999/xlink" x="0px" y="0px"
	 viewBox="0 0 50 50" style="enable-background:new 0 0 50 50;" xml:space="preserve">
<path d="M25.5,50L25.5,50c-0.5,0-1-0.3-1.2-0.7L10.5,23c0,0,0-0.1,0-0.1C6.9,14.6,10.7,5,19,1.4c8.3-3.6,17.9,0.2,21.5,8.5
	c1.8,4.2,1.8,9-0.1,13.1c0,0,0,0.1,0,0.1L26.7,49.3C26.5,49.7,26,50,25.5,50z M12.9,21.8l12.6,24L38,21.9c0.8-1.8,1.2-3.7,1.2-5.6
	c0.1-7.6-5.9-13.8-13.5-13.9c-7.6-0.1-13.8,5.9-13.9,13.5c0,0.2,0,0.3,0,0.5C11.8,18.2,12.2,20,12.9,21.8z M25.5,24.4
	c-4.8,0.1-8.7-3.8-8.8-8.6C16.6,11,20.5,7.1,25.3,7c4.8-0.1,8.7,3.8,8.8,8.6c0,0,0,0.1,0,0.1C34.1,20.4,30.3,24.3,25.5,24.4
	L25.5,24.4z M25.5,9.7c-3.3,0-6,2.6-6,5.9c0,3.3,2.6,6,5.9,6c3.3,0,6-2.6,6-5.9c0,0,0-0.1,0-0.1C31.4,12.4,28.8,9.8,25.5,9.7
	L25.5,9.7z"/>
</svg>
