<?xml version="1.0" encoding="utf-8"?>
<!-- Generator: Adobe Illustrator 19.2.1, SVG Export Plug-In . SVG Version: 6.00 Build 0)  -->
<svg version="1.1" id="Layer_1" xmlns="http://www.w3.org/2000/svg" xmlns:xlink="http://www.w3.org/1999/xlink" x="0px" y="0px"
	 viewBox="0 0 50 50" style="enable-background:new 0 0 50 50;" xml:space="preserve">
<path d="M13.4,47.4c-0.1,0-0.3,0-0.4-0.1c-0.5-0.2-0.9-0.7-0.9-1.2l-0.2-11.5L0.7,29c0,0-0.1,0-0.1-0.1c0,0-0.1-0.1-0.1-0.1
	c-0.2-0.2-0.4-0.4-0.5-0.7c0,0,0-0.1,0-0.1c0-0.3,0-0.6,0.2-0.9l0,0c0,0,0,0,0,0l0,0c0.1-0.2,0.3-0.3,0.5-0.4L48.1,2.7
	c0.1,0,0.2-0.1,0.2-0.1c0.1,0,0.1,0,0.2,0c0.1,0,0.3,0,0.4,0c0.1,0,0.3,0.1,0.4,0.2l0,0c0.1,0.1,0.2,0.2,0.3,0.3
	c0.1,0.1,0.2,0.3,0.2,0.4c0,0.1,0,0.2,0.1,0.2c0,0.2,0,0.3,0,0.5c0,0.1-0.1,0.2-0.1,0.3L32.1,46.3c-0.1,0.1-0.1,0.3-0.2,0.4l0,0
	l0,0.1l0,0l0,0c-0.2,0.2-0.5,0.4-0.9,0.4h0c0,0,0,0,0,0c-0.3,0-0.5-0.1-0.8-0.2l-10-7l-5.7,7C14.2,47.3,13.8,47.4,13.4,47.4z
	 M21.8,37.9l7.7,5.4l-0.3-14.1L21.8,37.9z M14.5,34.4l0.2,8l4.2-5.2l0,0l0,0l0,0l18.8-22.4l-10.6,9l-0.1,0L14.5,34.4z M31.8,26.1
	l0.3,13.6l12-28.2L31.8,26.1z M5.3,28.4l7.6,3.9l8.4-7.1L5.3,28.4z M39.1,10.2L10.7,24.6l15-3L39.1,10.2z"/>
</svg>
