<?xml version="1.0" encoding="utf-8"?>
<!-- Generator: Adobe Illustrator 19.2.1, SVG Export Plug-In . SVG Version: 6.00 Build 0)  -->
<svg version="1.1" id="Layer_1" xmlns="http://www.w3.org/2000/svg" xmlns:xlink="http://www.w3.org/1999/xlink" x="0px" y="0px"
	 viewBox="0 0 50 50" style="enable-background:new 0 0 50 50;" xml:space="preserve">
<path d="M45.2,36.1c5.2-8.5,4.5-19.4-1.7-27.2C35.4-1.3,20.4-3,10.2,5.2C0,13.4-1.7,28.2,6.4,38.5c4.5,5.7,11.4,8.9,18.6,9
	c2.7,0,5.3-0.5,7.8-1.3l10.3,3.8c0.3,0.1,0.6,0.2,0.9,0.2c1.5,0,2.7-1.2,2.7-2.7c0-0.1,0-0.3,0-0.4L45.2,36.1z M39.9,36.4l1,6.8
	l-6.8-2.5c-0.7-0.2-1.5-0.2-2.3,0c-2.1,0.9-4.4,1.3-6.7,1.3l0,0c-5.6,0-10.9-2.6-14.4-6.9c-6.3-8-5-19.5,2.9-25.8
	c7.9-6.3,19.4-5,25.8,2.9c0,0,0,0,0,0c5,6.3,5.4,15.1,0.8,21.8C39.7,34.7,39.6,35.6,39.9,36.4L39.9,36.4z M21.7,9.1
	c-0.4,0-0.7,0.1-1.1,0.2c-4.8,2.1-8.4,6.1-10,11.1c-0.5,1.4,0.2,2.9,1.6,3.4c1.4,0.5,2.9-0.2,3.4-1.6c0-0.1,0-0.1,0.1-0.2
	c1.1-3.5,3.7-6.4,7.1-7.8c1.4-0.6,2-2.2,1.4-3.5C23.7,9.7,22.8,9.1,21.7,9.1L21.7,9.1z"/>
</svg>
