<?xml version="1.0" encoding="utf-8"?>
<!-- Generator: Adobe Illustrator 19.2.1, SVG Export Plug-In . SVG Version: 6.00 Build 0)  -->
<svg version="1.1" id="Layer_1" xmlns="http://www.w3.org/2000/svg" xmlns:xlink="http://www.w3.org/1999/xlink" x="0px" y="0px"
	 viewBox="0 0 50 50" style="enable-background:new 0 0 50 50;" xml:space="preserve">
<path d="M0,26.6C13,26.6,23.4,37.1,23.4,50H33C33,31.8,18.2,17,0,17L0,26.6L0,26.6z M0,9.6c22.3,0,40.3,18.1,40.3,40.4H50
	C50,22.4,27.6,0,0,0V9.6z M13.3,43.3c0,3.7-3,6.7-6.7,6.7C3,50,0,47,0,43.3c0-3.7,3-6.7,6.7-6.7h0c3.6,0,6.6,2.9,6.7,6.5
	C13.3,43.3,13.3,43.3,13.3,43.3z"/>
</svg>
