<?xml version="1.0" encoding="utf-8"?>
<!-- Generator: Adobe Illustrator 19.2.1, SVG Export Plug-In . SVG Version: 6.00 Build 0)  -->
<svg version="1.1" id="Layer_1" xmlns="http://www.w3.org/2000/svg" xmlns:xlink="http://www.w3.org/1999/xlink" x="0px" y="0px"
	 viewBox="0 0 88.2 88.2" style="enable-background:new 0 0 88.2 88.2;" xml:space="preserve">
<path d="M86.3,76.7L68.1,58.5c4.3-6.2,6.6-13.6,6.6-21.2C74.6,16.7,57.9,0,37.3,0S0,16.7,0,37.3s16.7,37.3,37.3,37.3
	c7.5,0,14.9-2.3,21.2-6.6l18.2,18.1c1.2,1.3,3,2,4.8,2c3.7,0,6.8-3.1,6.8-6.8C88.2,79.6,87.5,77.9,86.3,76.7z M37.3,61.1
	c-13.1,0-23.8-10.7-23.8-23.8s10.7-23.8,23.8-23.8s23.8,10.7,23.8,23.8S50.4,61.1,37.3,61.1z"/>
</svg>
