<?xml version="1.0" encoding="utf-8"?>
<!-- Generator: Adobe Illustrator 19.2.1, SVG Export Plug-In . SVG Version: 6.00 Build 0)  -->
<svg version="1.1" id="Layer_1" xmlns="http://www.w3.org/2000/svg" xmlns:xlink="http://www.w3.org/1999/xlink" x="0px" y="0px"
	 viewBox="0 0 50 50" style="enable-background:new 0 0 50 50;" xml:space="preserve">
<path d="M50,23.7c-1.9,0.3-3.8,0.1-5.7-0.6c2.3,0,4.4-1.2,5.4-3.3c-1.8,0.9-3.9,1.1-5.9,0.7c-0.1-0.4-0.2-0.8-0.3-1.2
	c-1.1-4.9-5.6-8.4-10.6-8.3l1.2-0.5c0.5-0.2,3.6-0.7,3.1-1.8c-0.4-1-4.2,0.7-4.9,1c1.1-0.2,2.1-1,2.6-2c-1.5,0.2-2.8,0.9-3.9,1.8
	c0.4-0.4,0.7-0.9,0.8-1.5c-3.8,3.2-6.5,7.4-7.8,12.1c-1.1-1.2-2.4-2.2-3.8-3c-4.1-2.2-8.4-4.1-12.8-5.7c0,2.8,1.7,5.3,4.3,6.3
	c-1,0-2.1,0.1-3.1,0.4c0.5,2.7,2.8,4.8,5.6,5c-1.3,0-2.5,0.4-3.4,1.3c1.2,2.3,3.7,3.5,6.2,3c-3.8,1.7-1.6,4.8,1.5,4.3
	C13.5,37,5.3,37.2,0,32.3c12.6,17.2,39.9,10.2,44-6.4C46.2,26.1,48.4,25.3,50,23.7z"/>
</svg>
